<?xml version="1.0" encoding="UTF-8"?><svg xmlns="http://www.w3.org/2000/svg" viewBox="0 0 291.26 114.5"><defs><style>.f{fill:#2d2d2d;}.g{fill:#ffc330;}</style></defs><g id="a"/><g id="b"><g id="c"><g id="d"><rect class="g" x="98.61" y="20.28" width="2.68" height="4.22"/><rect class="g" x="103.18" y="17.02" width="2.68" height="7.48"/><rect class="g" x="107.75" y="18.72" width="2.68" height="5.78"/><rect class="g" x="112.31" y="12.72" width="2.68" height="11.78"/><rect class="g" x="116.88" y="17.02" width="2.68" height="7.48"/><rect class="g" x="121.45" y="19.35" width="2.68" height="5.15"/><rect class="g" x="126.01" y="14.94" width="2.68" height="9.56"/><rect class="g" x="130.58" y="5.39" width="2.68" height="19.11"/><rect class="g" x="135.15" width="2.68" height="24.5"/><rect class="g" x="139.72" y="12.79" width="2.68" height="11.7"/><rect class="g" x="144.28" y="20" width="2.68" height="4.5"/><rect class="g" x="148.85" y="14.94" width="2.68" height="9.56"/><rect class="g" x="153.42" y="12.25" width="2.68" height="12.25"/><rect class="g" x="157.98" y="14.91" width="2.68" height="9.59"/><rect class="g" x="162.55" y="4.01" width="2.68" height="20.49"/><rect class="g" x="167.12" y="12.72" width="2.68" height="11.78"/><rect class="g" x="171.68" y="17.02" width="2.68" height="7.48"/><rect class="g" x="176.25" y="15.5" width="2.68" height="9"/><rect class="g" x="180.82" y="8.01" width="2.68" height="16.49"/><rect class="g" x="185.38" y="20.76" width="2.68" height="3.74"/><rect class="g" x="189.95" y="14.91" width="2.68" height="9.59"/><rect class="g" x="194.52" y="9.06" width="2.68" height="15.44"/><rect class="g" x="199.09" width="2.68" height="24.5"/><rect class="g" x="203.65" y="12.79" width="2.68" height="11.7"/><rect class="g" x="208.22" y="14.91" width="2.68" height="9.59"/><rect class="g" x="212.79" y="9.06" width="2.68" height="15.44"/><rect class="g" x="217.35" y="14.2" width="2.68" height="10.3"/><rect class="g" x="221.92" y="17.02" width="2.68" height="7.48"/><rect class="g" x="226.49" y="17.83" width="2.68" height="6.67"/><rect class="g" x="231.05" y="12.79" width="2.68" height="11.7"/><rect class="g" x="98.61" y="26.19" width="2.68" height="4.22"/><rect class="g" x="103.18" y="26.19" width="2.68" height="7.48"/><rect class="g" x="107.75" y="26.19" width="2.68" height="5.78"/><rect class="g" x="112.31" y="26.19" width="2.68" height="11.78"/><rect class="g" x="116.88" y="26.19" width="2.68" height="7.48"/><rect class="g" x="121.45" y="26.19" width="2.68" height="5.15"/><rect class="g" x="126.01" y="26.19" width="2.68" height="9.56"/><rect class="g" x="130.58" y="26.19" width="2.68" height="19.11"/><rect class="g" x="135.15" y="26.19" width="2.68" height="24.5"/><rect class="g" x="139.72" y="26.19" width="2.68" height="11.7"/><rect class="g" x="144.28" y="26.19" width="2.68" height="4.5"/><rect class="g" x="148.85" y="26.19" width="2.68" height="9.56"/><rect class="g" x="153.42" y="26.19" width="2.68" height="12.25"/><rect class="g" x="157.98" y="26.19" width="2.68" height="9.59"/><rect class="g" x="162.55" y="26.19" width="2.68" height="20.49"/><rect class="g" x="167.12" y="26.19" width="2.68" height="11.78"/><rect class="g" x="171.68" y="26.19" width="2.68" height="7.48"/><rect class="g" x="176.25" y="26.19" width="2.68" height="9"/><rect class="g" x="180.82" y="26.19" width="2.68" height="16.49"/><rect class="g" x="185.38" y="26.19" width="2.68" height="3.74"/><rect class="g" x="189.95" y="26.19" width="2.68" height="9.59"/><rect class="g" x="194.52" y="26.19" width="2.68" height="15.44"/><rect class="g" x="199.09" y="26.19" width="2.68" height="24.5"/><rect class="g" x="203.65" y="26.19" width="2.68" height="11.7"/><rect class="g" x="208.22" y="26.19" width="2.68" height="9.59"/><rect class="g" x="212.79" y="26.19" width="2.68" height="15.44"/><rect class="g" x="217.35" y="26.19" width="2.68" height="10.3"/><rect class="g" x="221.92" y="26.19" width="2.68" height="7.48"/><rect class="g" x="226.49" y="26.19" width="2.68" height="6.67"/><rect class="g" x="231.05" y="26.19" width="2.68" height="11.7"/><rect class="g" x="235.62" y="26.19" width="2.68" height="7.72"/><rect class="g" x="240.19" y="26.19" width="2.68" height="3.74"/><rect class="g" x="235.62" y="16.78" width="2.68" height="7.72"/><rect class="g" x="240.19" y="20.76" width="2.68" height="3.74"/><rect class="g" x="244.75" y="23.43" width="2.68" height="3.74"/><rect class="g" x="94.05" y="23.44" width="2.68" height="3.74"/></g><g id="e"><path class="f" d="M0,62.97v-7.01H20.74v7.01H0Zm16.18,25.87c-2.54,0-4.62-.29-6.22-.86-1.6-.57-2.8-1.49-3.59-2.75-.79-1.26-1.19-2.91-1.19-4.96V45.95H14.31v32.86c0,.74,.13,1.31,.39,1.73,.26,.41,.65,.7,1.18,.86s1.25,.25,2.17,.25h2.69v6.98c-.07,0-.15,0-.23,.02-.08,.01-.15,.02-.21,.02-.7,.06-1.39,.11-2.09,.13-.7,.03-1.37,.04-2.03,.04Z"/><path class="f" d="M40.57,89.39c-3.37,0-6.32-.69-8.85-2.07-2.53-1.38-4.49-3.35-5.87-5.91-1.38-2.56-2.07-5.59-2.07-9.07s.69-6.39,2.06-8.98c1.37-2.59,3.32-4.6,5.83-6.02,2.52-1.43,5.45-2.14,8.81-2.14s6.29,.71,8.79,2.14c2.49,1.42,4.41,3.42,5.75,5.99,1.34,2.57,2.01,5.52,2.01,8.86,0,.39-.01,.81-.03,1.25-.02,.44-.05,.91-.08,1.41H28.84v-5.71h21.47l-2.26,1.28c-.01-1.7-.31-3.18-.89-4.46-.59-1.27-1.45-2.26-2.59-2.98-1.14-.71-2.53-1.07-4.16-1.07s-3.03,.35-4.19,1.06c-1.16,.71-2.05,1.77-2.68,3.19-.63,1.42-.95,3.2-.96,5.34v2.34c0,1.95,.32,3.6,.96,4.94,.64,1.34,1.57,2.35,2.79,3.02,1.22,.67,2.68,1.01,4.39,1.01,1.22,0,2.3-.17,3.24-.52,.93-.35,1.71-.85,2.33-1.5,.62-.65,1.08-1.43,1.39-2.35l8.63-.02c-.56,2.25-1.55,4.19-2.98,5.84-1.42,1.65-3.22,2.91-5.39,3.8-2.17,.89-4.62,1.33-7.35,1.33Z"/><path class="f" d="M62.32,88.63V43.54h9.13v45.08h-9.13Z"/><path class="f" d="M78.19,88.63V43.54h9.13v45.08h-9.13Z"/><path class="f" d="M109.91,88.63V43.54h9.13v45.08h-9.13Zm21.35-19.85c0-1.28-.21-2.34-.64-3.19-.43-.85-1.05-1.49-1.88-1.93-.82-.44-1.84-.66-3.06-.66-1.13,0-2.2,.27-3.21,.8s-1.84,1.35-2.48,2.46c-.64,1.11-.96,2.47-.96,4.1l-2.72,.02v-7.85h1.69c.63-1.5,1.48-2.8,2.55-3.89,1.07-1.1,2.32-1.94,3.76-2.54,1.44-.6,3.03-.89,4.76-.89,2.35,0,4.37,.45,6.06,1.35,1.69,.9,2.99,2.26,3.89,4.08,.91,1.82,1.36,4.09,1.36,6.8v21.21h-9.13v-19.85Z"/><path class="f" d="M162.5,89.39c-3.37,0-6.32-.69-8.85-2.07-2.53-1.38-4.49-3.35-5.87-5.91-1.38-2.56-2.07-5.59-2.07-9.07s.69-6.39,2.06-8.98c1.37-2.59,3.32-4.6,5.83-6.02,2.52-1.43,5.45-2.14,8.81-2.14s6.29,.71,8.79,2.14c2.49,1.42,4.41,3.42,5.75,5.99,1.34,2.57,2.01,5.52,2.01,8.86,0,.39-.01,.81-.03,1.25-.02,.44-.05,.91-.08,1.41h-28.07v-5.71h21.47l-2.26,1.28c-.01-1.7-.31-3.18-.89-4.46-.59-1.27-1.45-2.26-2.59-2.98-1.14-.71-2.53-1.07-4.16-1.07s-3.03,.35-4.19,1.06c-1.16,.71-2.05,1.77-2.68,3.19s-.95,3.2-.96,5.34v2.34c0,1.95,.32,3.6,.96,4.94,.64,1.34,1.57,2.35,2.79,3.02,1.22,.67,2.68,1.01,4.39,1.01,1.22,0,2.3-.17,3.24-.52,.93-.35,1.71-.85,2.33-1.5,.62-.65,1.08-1.43,1.39-2.35l8.63-.02c-.56,2.25-1.55,4.19-2.98,5.84-1.42,1.65-3.22,2.91-5.39,3.8-2.17,.89-4.62,1.33-7.35,1.33Z"/><path class="f" d="M194.39,89.53c-2.35,0-4.42-.37-6.19-1.11-1.77-.74-3.15-1.84-4.12-3.32-.98-1.47-1.46-3.27-1.46-5.41,0-1.87,.41-3.5,1.23-4.89,.82-1.39,2.14-2.54,3.97-3.44s4.2-1.5,7.13-1.8l5.29-.52c1.02-.11,1.87-.29,2.53-.55,.66-.26,1.16-.63,1.49-1.1,.33-.47,.5-1.09,.51-1.84l1.57,2.01c-.05,1.65-.24,2.92-.56,3.82s-.84,1.56-1.55,2-1.72,.74-3.03,.89l-3.91,.48c-1.31,.17-2.35,.44-3.13,.81-.78,.37-1.35,.84-1.69,1.42-.35,.58-.52,1.29-.52,2.12,0,.88,.19,1.62,.58,2.24,.38,.62,.96,1.09,1.73,1.41s1.73,.48,2.88,.48c1.41,0,2.7-.27,3.85-.81s2.08-1.35,2.76-2.45c.69-1.09,1.03-2.45,1.03-4.08h1.8l.06,4.15c-.36,1.98-1.06,3.69-2.11,5.1-1.05,1.42-2.43,2.5-4.13,3.25-1.7,.74-3.7,1.12-5.99,1.12Zm11.48-.9c-.08-.23-.16-.48-.22-.74s-.13-.53-.19-.81c-.1-.49-.18-.98-.27-1.48-.08-.5-.15-.99-.18-1.46s-.06-.89-.06-1.26l-.19-.13v-17.21c0-.84-.18-1.54-.55-2.09-.36-.55-.95-.96-1.76-1.23-.81-.27-1.87-.4-3.19-.4-1.39,0-2.51,.15-3.36,.44-.85,.3-1.49,.79-1.93,1.5-.44,.7-.7,1.65-.78,2.86h-9.12c.12-2.46,.7-4.53,1.76-6.21,1.06-1.68,2.7-2.97,4.92-3.87,2.22-.9,5.09-1.35,8.6-1.35s6.13,.4,8.27,1.2c2.14,.8,3.7,1.94,4.69,3.42,.99,1.48,1.48,3.26,1.48,5.35v17.02c0,.56,.04,1.22,.12,1.98s.19,1.54,.33,2.34c.14,.8,.3,1.51,.48,2.13h-8.87Z"/><path class="f" d="M220.7,88.63V43.54h9.13v45.08h-9.13Z"/><path class="g" d="M234.3,62.97v-7.01h20.74v7.01h-20.74Zm16.18,25.87c-2.54,0-4.62-.29-6.22-.86-1.6-.57-2.8-1.49-3.59-2.75-.79-1.26-1.19-2.91-1.19-4.96V45.95h9.13v32.86c0,.74,.13,1.31,.39,1.73,.26,.41,.65,.7,1.18,.86s1.25,.25,2.17,.25h2.69v6.98c-.07,0-.15,0-.23,.02-.08,.01-.15,.02-.21,.02-.7,.06-1.39,.11-2.09,.13-.7,.03-1.37,.04-2.03,.04Z"/><path class="f" d="M260.12,88.63V43.54h9.13v45.08h-9.13Zm21.35-19.85c0-1.28-.21-2.34-.64-3.19-.43-.85-1.05-1.49-1.88-1.93-.82-.44-1.84-.66-3.06-.66-1.13,0-2.2,.27-3.21,.8s-1.84,1.35-2.48,2.46c-.64,1.11-.96,2.47-.96,4.1l-2.72,.02v-7.85h1.69c.63-1.5,1.48-2.8,2.55-3.89,1.07-1.1,2.32-1.94,3.76-2.54,1.44-.6,3.03-.89,4.76-.89,2.35,0,4.37,.45,6.06,1.35,1.69,.9,2.99,2.26,3.89,4.08,.91,1.82,1.36,4.09,1.36,6.8v21.21h-9.13v-19.85Z"/><path class="g" d="M94.05,52.6v-8.01h9.13v8.01h-9.13Zm0,35.89V55.81h9.13v32.67h-9.13Z"/></g><g><path class="f" d="M212.6,99.66v10.28h-2.11v-10.28h2.11Zm1.51,10.28h-2.66v-1.82h2.56c.66,0,1.22-.12,1.67-.35,.45-.24,.79-.6,1.01-1.09,.23-.49,.34-1.12,.34-1.89s-.11-1.39-.34-1.88c-.23-.49-.56-.85-1.01-1.09-.44-.23-1-.35-1.65-.35h-2.62v-1.82h2.75c1.03,0,1.92,.21,2.66,.62,.74,.41,1.31,1,1.72,1.77,.4,.77,.6,1.68,.6,2.75s-.2,1.99-.6,2.76-.97,1.36-1.72,1.77c-.75,.41-1.64,.62-2.69,.62Z"/><path class="f" d="M224.05,109.94v-10.28h6.88v1.75h-4.78v2.49h4.42v1.72h-4.42v2.59h4.79v1.75h-6.9Z"/><path class="f" d="M238.99,109.94l-3.6-10.28h2.34l1.64,4.96c.2,.63,.4,1.31,.6,2.07,.2,.75,.42,1.57,.64,2.47h-.46c.22-.9,.43-1.73,.62-2.47,.19-.75,.38-1.43,.57-2.06l1.59-4.96h2.33l-3.52,10.28h-2.75Z"/><path class="f" d="M251.99,99.66v10.28h-2.11v-10.28h2.11Z"/><path class="f" d="M261.69,110.08c-.91,0-1.73-.21-2.45-.62s-1.29-1.01-1.7-1.8c-.42-.79-.62-1.74-.62-2.85s.21-2.07,.63-2.86c.42-.79,.99-1.39,1.71-1.8,.72-.41,1.53-.62,2.44-.62,.58,0,1.13,.08,1.63,.25,.5,.16,.95,.4,1.34,.71,.39,.31,.71,.7,.96,1.15,.25,.45,.41,.97,.49,1.55h-2.13c-.05-.29-.13-.54-.27-.76-.13-.22-.29-.41-.49-.56-.2-.15-.42-.27-.67-.35-.25-.08-.53-.12-.82-.12-.53,0-1,.13-1.4,.4-.4,.27-.72,.65-.94,1.16s-.33,1.13-.33,1.85,.11,1.36,.34,1.87c.23,.51,.54,.89,.94,1.15s.86,.39,1.39,.39c.29,0,.57-.04,.82-.12,.25-.08,.48-.2,.68-.35s.37-.34,.5-.56c.13-.22,.22-.47,.27-.75h2.13c-.06,.48-.2,.94-.42,1.37s-.53,.83-.91,1.17c-.38,.35-.83,.62-1.35,.81-.52,.2-1.1,.3-1.75,.3Z"/><path class="f" d="M271,109.94v-10.28h6.88v1.75h-4.78v2.49h4.42v1.72h-4.42v2.59h4.79v1.75h-6.9Z"/><path class="f" d="M286.7,110.09c-.82,0-1.54-.13-2.15-.38s-1.08-.63-1.43-1.12-.52-1.11-.54-1.84h2.05c.03,.34,.13,.63,.31,.87,.18,.23,.42,.41,.72,.52,.3,.12,.64,.17,1.01,.17s.71-.05,.98-.16,.5-.26,.65-.46c.16-.2,.23-.43,.23-.69,0-.23-.07-.43-.21-.59-.14-.16-.34-.3-.6-.41-.26-.11-.58-.22-.96-.3l-1.13-.28c-.87-.21-1.55-.54-2.04-1-.49-.45-.74-1.05-.74-1.8,0-.62,.17-1.16,.5-1.63,.33-.46,.79-.83,1.37-1.08,.58-.26,1.25-.39,1.99-.39s1.42,.13,1.99,.39,1.01,.62,1.33,1.08c.32,.46,.48,1,.49,1.6h-2.04c-.04-.41-.21-.73-.53-.96-.32-.22-.73-.34-1.26-.34-.35,0-.66,.05-.91,.15-.25,.1-.44,.24-.58,.42-.13,.18-.2,.38-.2,.61,0,.25,.08,.46,.23,.63s.35,.3,.61,.41c.25,.1,.52,.19,.81,.26l.93,.23c.43,.1,.83,.23,1.21,.39,.37,.17,.7,.37,.98,.61,.28,.24,.5,.53,.65,.86,.15,.33,.23,.71,.23,1.15,0,.62-.16,1.16-.47,1.63-.31,.46-.77,.82-1.36,1.07-.59,.25-1.31,.38-2.14,.38Z"/></g></g></g></svg>